<?xml version="1.0" encoding="utf-8"?>
<!-- Generator: Adobe Illustrator 21.1.0, SVG Export Plug-In . SVG Version: 6.00 Build 0)  -->
<svg version="1.1" id="Layer_1" xmlns="http://www.w3.org/2000/svg" xmlns:xlink="http://www.w3.org/1999/xlink" x="0px" y="0px"
	 viewBox="0 0 120 120" style="enable-background:new 0 0 120 120;" xml:space="preserve">
<style type="text/css">
	.st0{fill:#50C0A3;}
	.st1{fill:#FFFFFF;}
</style>
<title>Artboard</title>
<desc>Created with Sketch.</desc>
<circle id="Oval" class="st0" cx="60.5" cy="60.5" r="45.5"/>
<g>
	<path class="st1" d="M68.1,51.6v-2.9c0-3.7-3.1-6.8-6.8-6.7c-3.7,0-6.7,3-6.7,6.7v2.9c0,3.7,3.1,6.8,6.8,6.7
		C65.1,58.3,68.1,55.3,68.1,51.6z M56.4,51.6v-2.9c0-2.8,2.3-5,5-5c2.7,0,4.9,2.2,5,5v2.9c0,2.8-2.3,5-5,5
		C58.6,56.5,56.4,54.3,56.4,51.6z"/>
	<path class="st1" d="M50.4,76.7h21.8c0.5,0,0.9-0.4,0.9-0.9l0,0v-2h15c0.5,0,0.9-0.4,0.9-0.9v-5.8c0-3.5-2.7-6.4-6.3-6.7
		c-0.5,0-0.7,0.3-0.9,0.5c-1.4,1.8-4,2-5.8,0.6c-0.3-0.2-0.5-0.5-0.7-0.7c-0.2-0.2-0.4-0.4-0.7-0.4c-1.2,0-2.3,0.4-3.3,1
		c-1.3-1.5-3.2-2.5-5.2-2.6c-0.5,0-0.7,0.3-0.9,0.5c-1.7,2.1-4.7,2.4-6.8,0.7c-0.3-0.3-0.6-0.5-0.8-0.9c-0.2-0.2-0.4-0.4-0.7-0.4
		c-2,0-3.8,0.9-5.2,2.3c-0.1,0.1-0.2,0.2-0.3,0.4c-0.9-0.6-2-0.9-3-1c-0.5,0-0.7,0.3-0.9,0.5c-1.4,1.8-4,2-5.8,0.6
		c-0.3-0.2-0.5-0.5-0.7-0.7c-0.2-0.2-0.4-0.4-0.7-0.4c-3.6,0.1-6.5,3.1-6.5,6.7v5.8c0,0.5,0.4,0.9,0.9,0.9h15v2
		C49.5,76.3,49.9,76.7,50.4,76.7z M74.2,62.2c2.1,2.4,5.9,2.7,8.3,0.5c0.2-0.2,0.3-0.3,0.5-0.5c2.4,0.4,4.2,2.4,4.2,4.8V72H73.2
		v-5.7c0-1.2-0.3-2.4-0.8-3.4C72.9,62.5,73.6,62.3,74.2,62.2L74.2,62.2z M56.5,60.6c2.4,2.8,6.5,3.1,9.3,0.7
		c0.2-0.2,0.5-0.4,0.7-0.7c2.8,0.4,4.9,2.8,4.9,5.7v8.7H51.3v-8.7C51.3,63.3,53.6,60.9,56.5,60.6z M35.5,72v-4.9
		c0-2.5,1.9-4.6,4.4-4.9c2.1,2.4,5.9,2.7,8.3,0.5c0.2-0.2,0.3-0.3,0.5-0.5c0.6,0.1,1.2,0.3,1.7,0.6c-0.5,1.1-0.8,2.2-0.8,3.4V72
		H35.5z"/>
	<path class="st1" d="M84.6,54.2v-2.6c0-3.3-2.7-6-6-6s-6,2.7-6,6v2.6c0,3.3,2.7,6,6,6S84.6,57.6,84.6,54.2z M74.3,54.2v-2.6
		c0-2.4,1.9-4.3,4.3-4.3s4.3,1.9,4.3,4.3c0,0,0,0,0,0v2.6c0,2.4-1.9,4.3-4.3,4.3C76.2,58.5,74.3,56.6,74.3,54.2
		C74.3,54.2,74.3,54.2,74.3,54.2z"/>
	<path class="st1" d="M50.2,54.2v-2.6c0-3.3-2.7-6-6-6c-3.3,0-6,2.7-6,6v2.6c0,3.3,2.7,6,6,6C47.5,60.3,50.2,57.6,50.2,54.2z
		 M39.9,54.2v-2.6c0-2.4,1.9-4.3,4.3-4.3c2.4,0,4.3,1.9,4.3,4.3c0,0,0,0,0,0v2.6c0,2.4-1.9,4.3-4.3,4.3
		C41.8,58.5,39.9,56.6,39.9,54.2C39.9,54.2,39.9,54.2,39.9,54.2z"/>
</g>
</svg>
